# xmcd
#
# Track frame offsets:
#	150
#	15309
#	28469
#	40458
#	57586
#	77931
#	99046
#	115360
#	131939
#	149874
#	168870
#	187191
#	197944
#	212258
#	221815
#	233733
#	243896
#
# Disc length: 3467 seconds
#
# Revision: 1
# Processed by: cddbd v1.5.1PL0 Copyright (c) Steve Scherf et al.
# Submitted via: audiograbber 1.83.01
#
DISCID=020d8911
DTITLE=Various Artist - Z-004_Premonition
DYEAR=2004
DGENRE=Country
TTITLE0=Waylon Jennings - Luckenbock Texas
TTITLE1=Jerry Reed - East Bound And Down
TTITLE2=Farron Young - Take This Job And Shove It
TTITLE3=Waylon Jennings - Can't You See
TTITLE4=Johnny Cash - When The Man Comes To Town
TTITLE5=The Desperadows - Like Desperados Waiting For A Train
TTITLE6=Gretchen Wilson - Holding You Holding Me 
TTITLE7=Lenoard Skynard - Train Train
TTITLE8=Waylon Jennings/Hank Williams Jr - Conversation
TTITLE9=The Outlaws - You Never Even Me By My Name 
TTITLE10=Johnny Cash - A Boy Named Sue
TTITLE11=Wllie Nelson - Blue Eyes Cryin' In The Rain
TTITLE12=Willie Nelson - My Heros Have Always Been Coyboys
TTITLE13=Wayne Newton - Rawhide
TTITLE14=Waylon Jennings - D R U N K 
TTITLE15=The Outlaws - I Gotta Get Drunk
TTITLE16=Catfish Jackson - Movin To Kansas City Blues
EXTD=
EXTT0=
EXTT1=
EXTT2=
EXTT3=
EXTT4=
EXTT5=
EXTT6=
EXTT7=
EXTT8=
EXTT9=
EXTT10=
EXTT11=
EXTT12=
EXTT13=
EXTT14=
EXTT15=
EXTT16=
PLAYORDER=
